# xmcd
#
# Track frame offsets:
#  150
#  12211
#  24775
#  38712
#  50056
#  62001
#  74243
#  86600
#  98825
#  111775
#  123077
#  136350
#  149764
#  161393
#  175225
#  187454
#  199581
#  212767
#  226343
#  238819
#  253392
#
# Disc length: 3530 seconds
#
# Revision: 0
# Processed by: cddbd v1.5.1PL0 Copyright (c) Steve Scherf et al.
# Submitted via: Collectorz.com_Music_Collector 6.9
#
DISCID=380dc815
DTITLE=Prairie Ramblers - The Oregon Trail
DYEAR=2003
DGENRE=
TTITLE0=All I Ever Do Is Wait
TTITLE1=I'll Be Back In A Year Little Darling
TTITLE2=You're The Fly In My Ointment
TTITLE3=Have A Heart Taft-Hartley
TTITLE4=Will I Ride The Range In Heaven
TTITLE5=Answer To I'll Be Back In A Year
TTITLE6=I'll Love Till I Die
TTITLE7=I'm A Married Man
TTITLE8=Nellie's Not The Same Nell Now
TTITLE9=There's A Man That Comes To Our House
TTITLE10=Old Mississippi Moon
TTITLE11=The Oregon Trail
TTITLE12=The Girl At The End Of The Bar
TTITLE13=Yip Yip Yowie, I'm An Eagle
TTITLE14=You Were Right And I Was Wrong
TTITLE15=I Love My Fruit
TTITLE16=Darling Do You Love Another
TTITLE17=Deed We Do
TTITLE18=Ghost In The Graveyard
TTITLE19=I'm Looking For The Bully Of The Town
TTITLE20=Easy On The Eye
EXTD=
EXTT0=
EXTT1=
EXTT2=
EXTT3=
EXTT4=
EXTT5=
EXTT6=
EXTT7=
EXTT8=
EXTT9=
EXTT10=
EXTT11=
EXTT12=
EXTT13=
EXTT14=
EXTT15=
EXTT16=
EXTT17=
EXTT18=
EXTT19=
EXTT20=
PLAYORDER=
